<?xml version="1.0" standalone="no"?>
<!DOCTYPE svg PUBLIC "-//W3C//DTD SVG 20010904//EN" "http://www.w3.org/TR/2001/REC-SVG-20010904/DTD/svg10.dtd">
<svg xmlns="http://www.w3.org/2000/svg" version="1.0" width="258.000000pt" height="217.000000pt" viewBox="0 0 258.000000 217.000000" preserveAspectRatio="xMidYMid meet">
<metadata>
Created by potrace 1.16, written by Peter Selinger 2001-2019
<meta name="Producer" content="Online-Convert"/></metadata>
<g transform="translate(0.000000,217.000000) scale(0.100000,-0.100000)" fill="#000000" stroke="none">
<path d="M1229 1695 c-20 -7 -54 -24 -75 -38 -46 -28 -150 -137 -159 -166 -10 -32 -30 -31 -113 5 -44 19 -104 37 -132 41 -44 5 -59 2 -123 -30 -134 -66 -148 -96 -76 -161 79 -72 171 -106 308 -115 l104 -6 13 -61 c15 -77 36 -118 138 -274 l81 -124 6 -177 c9 -230 26 -272 134 -328 85 -44 265 -37 344 14 88 56 102 94 110 315 l6 176 81 124 c102 156 123 197 138 274 l13 61 100 6 c139 9 233 43 312 114 70 64 60 91 -61 156 -89 47 -153 47 -266 -3 -88 -38 -107 -39 -118 -6 -3 11 -34 50 -69 87 -107 113 -223 154 -331 117 -59 -20 -122 -20 -194 -1 -67 18 -123 18 -171 0z m128 -51 c93 -37 183 -37 276 0 78 30 128 33 153 9 37 -38 -13 -296 -101 -513 -26 -63 -56 -137 -66 -163 -29 -73 -35 -153 -15 -221 14 -47 28 -68 72 -109 66 -63 81 -104 64 -180 -16 -78 -30 -91 -118 -121 -100 -33 -154 -33 -254 0 -91 30 -111 53 -122 132 -9 70 7 110 68 169 67 63 92 132 82 224 -6 63 -10 76 -86 259 -86 208 -140 463 -111 518 16 31 73 29 158 -4z"/>
<path d="M1447 594 c-4 -4 -42 -11 -85 -14 l-77 -5 0 -67 c0 -59 3 -71 25 -92 28 -27 138 -66 185 -66 17 0 62 11 101 23 90 31 116 65 112 147 l-3 55 -70 7 c-38 4 -95 10 -125 13 -30 4 -59 3 -63 -1z"/>
</g>
</svg>
